<svg width="96" height="80" fill="none" xmlns="http://www.w3.org/2000/svg"><g clip-path="url(#clip0_1599_2158)"><mask id="a" style="mask-type:alpha" maskUnits="userSpaceOnUse" x="0" y="0" width="96" height="80"><path d="M95.998 0H0v79.915h95.998V0z" fill="#fff"/></mask><g mask="url(#a)"><path fill-rule="evenodd" clip-rule="evenodd" d="M87.869 39.79c1.495.982 2.63 3.492 3.232 5.039.444 1.14 1.065 2.996 1.216 4.522 1.049.58 1.896 1.505 2.127 2.73.062.327.073.655.038.977 1.747 1.471 2.008 3.743.638 5.65.872 3.18.249 6.426-2.042 8.942-1.782 1.958-4.331 3.16-6.966 3.339-2.109.142-4.128-.372-5.853-1.466a2.95 2.95 0 01-.26.245c-1.355 1.135-3.469.813-5.115.825a3.33 3.33 0 01-1.077-.172 39.674 39.674 0 01-25.81 9.503 39.676 39.676 0 01-25.842-9.528 2.931 2.931 0 01-.635-.342c-.555.523-1.284.856-2.195.923-1.395.103-2.794-.156-3.75-1.266-.564-.653-.844-1.48-.983-2.36C13.298 69.589 11.159 71 8.067 71c-1.577 0-3.048-.443-4.286-1.44C-.26 66.308-.001 58.753-.001 54.03c0-3.172-.034-6.78.82-9.843 1.11-3.98 4.02-5.652 7.31-4.77C8.422 17.604 26.159.01 47.997.01c21.961 0 39.777 17.794 39.872 39.78z" fill="#DADADB"/><mask id="b" style="mask-type:alpha" maskUnits="userSpaceOnUse" x="9" y="1" width="77" height="77"><path d="M47.977 1.58h-.046C26.943 1.58 9.93 18.63 9.93 39.664c0 21.032 17.013 38.082 38 38.082h.047c20.987 0 38.001-17.05 38.001-38.082s-17.014-38.082-38-38.082z" fill="#fff"/></mask><g mask="url(#b)"><path d="M85.978 39.663c0 21.032-17.024 38.082-38.024 38.082S9.93 60.695 9.93 39.663C9.93 18.63 26.954 1.58 47.954 1.58s38.024 17.05 38.024 38.083z" fill="#0E76A8"/></g><path fill-rule="evenodd" clip-rule="evenodd" d="M33.434 56.414c-.826-4.018-1.128-2.936-2.04-5.73-1.687-5.168 3.428-7.789 1.042-9.355-2.298-1.51-9.001-3.28-8.311-7.939.387-2.616 2.232-3.713 4.629-3.2 2.83.604 5.112 3.764 7.086 2.947 1.589-.658-1.809-1.267-2.054-6.42-.141-2.985 1.402-7.523 2.646-10.225.51-1.11.234-.37-.62-1.669-1.326-2.017-1.64-6.947.758-5.604.728.408 3.054 2.53 3.747 2.68.115.024 3.46-1.077 7.766-.195.73.15.5.19 1.387-.71.91-.92 2.83-2.77 4.25-2.122 1.017.463.84 2.814.889 3.912.018.417.056.556.444 1.057 2.382 3.07 5.557 6.043 7.414 10.03 1.702 3.65 4.76 13.795 5.005 19.225.065 1.432 1.683 1.808 1.683 4.608 0 2.596-2.259 2.626-2.743 5.2-.947 5.024-3.487 5.925-4.208 10.738-.265 1.765-2.792 3.286-5.863 3.354-3.568.079-7.14-2.093-3.986-5.227.462-.458.534-.986.52-1.386-.05-1.389-6.6-1.274-6.468.365.139 1.71 1.653 1.646 1.52 3.343-.14 1.779-2.735 3.025-5.798 2.784-6.91-.545-7.423-4.266-8.695-10.46z" fill="#2B2B2A"/><path fill-rule="evenodd" clip-rule="evenodd" d="M35.183 30c-1.148-1.134-1.218-3.489-.922-5.528.27-1.845.7-3.295 1.59-5.543.68-1.72 1.827-5.08 3.345-5.968 1.369-.802 8.092-1.778 9.218-.548 1.038 1.136 2.121 4.067 3.182 3.223.667-.53.902-1.794 2.373.9 1.09 1.996 1.76 3.8 1.992 6.025.327 3.135-.97 2.43-1.203 3.744-.093.52.208 5.318-2.89 4.455-.404-.113-.03.474-1.162 1.286-1.228.88-2.714.502-3.485.529-.27.009-.084.2-.673.785-1.276 1.268-2.878 2.145-4.734 2.145-1.973 0-2.735-.805-.813-1.556 1.33-.52 2.364-1.391 3.175-2.644l.334-.875c-.96 1.565-2.206 2.99-4.22 3.381-2.285.444-4.005-.885-4.673-2.893-.227-.684-.028-.487-.434-.918zm2.301 6.992c-2.07 2.528-4.73 8.14-4.32 11.524.562 4.665 4.288 6.933 8.83 8.263 2.41.706 5.796.945 7.93.473 7.144-1.579 11.117-6.236 13.349-10.206.564-1.004.967-4.04-.158-4.532-1.571-.687-2.293 3.092-4.05 5.127-1.266 1.467-3.75 3.189-5.514 3.478-4.912.804-6.556-4.034-1.178-8.465 1.005-.829 2.547-1.712 1.69-3.232-.595-1.058-3.576-2.28-4.649-2.728-1.267-.53-.89-.127-2.703.212-2.362.443-5.927.234-8.215-.321-.4-.097-.57-.134-1.012.407zm-.079-6.486c-.502-1.19-1.636.273-.106 1.392 2.37 1.733 4.16-1.823 2.696-1.787-.898.023.169.996-2.264.615-.248-.039-.27-.085-.326-.22z" fill="#fff"/><path fill-rule="evenodd" clip-rule="evenodd" d="M44.502 25.571c-.3 2.282.408 5.851 3.44 5.23 2.923-.6 3.446-4.364 2.442-5.528-.423-.492-2.655-2.405-2.947-1.867-.393.725-.216 3.01-2.618 1.904-.203-.093-.269-.102-.317.261zm-8.212-1.417c-.919 1.457-2.022 3.511-1.193 5.264.253.535.859 1.233.883-.005.03-1.561.472-1.966 1.11-3.344.428-.923 0-.9-.334-1.44-.331-.535-.133-1.005-.467-.475z" fill="#DADADB"/><path fill-rule="evenodd" clip-rule="evenodd" d="M36.757 22.524c-.232.838-1.59 4.243-.921 4.423 1.013.274 1.814-1.498 2.324-2.136.63-.787 1.246-1.506 1.023-2.873-.138-.842-1.03-2.348-1.953-.982-.328.487-.276.854-.473 1.568zm7.711 1.085c-.274.314.386.288.163-.009-.038-.05-.116-.045-.163.009zm-6.609-.517c-.304.286.34.6.353.188.004-.14-.208-.325-.353-.188zm-.272.433c-.213.244.3.224.126-.007-.03-.038-.09-.035-.126.007zm7.232-.474c-.392.368.438.772.455.241.005-.18-.268-.417-.455-.241zm-.787.23c-.15.794 1.119 1.784 1.657.96.804-1.233-1.368-2.494-1.657-.96zm-5.45-.194c.116.617-.868 1.385-1.286.745-.624-.956 1.062-1.935 1.286-.745zm.036-.56c.785.79-.409 2.324-1.411 1.813-1.2-.613.476-2.758 1.411-1.814zm5.367.031c-1.012 1.02.527 2.996 1.819 2.337 1.547-.79-.614-3.554-1.82-2.337zm-1.652 1.366c.296.277 1.03.467 1.633 1.052.965.938 1.686 2.98 3.141 1.799 2.038-1.656.048-5.182-1.012-5.903-1.653-1.124-3.978 2.131-3.972 2.596.002.14.06.315.21.456z" fill="#2B2B2A"/><path fill-rule="evenodd" clip-rule="evenodd" d="M27.848 31.56c.142.03.358.03.453-.093.095-.122.07-.367.134-1.084.065-.718.218-1.909.294-2.516.077-.608.077-.633-.012-.652a3.267 3.267 0 00-.393-.037c-.127-.006-.201-.006-.247.122-.045.13-.062.386-.13.998s-.188 1.578-.26 2.157c-.073.579-.098.77-.075.894.022.124.093.182.236.211z" fill="#ECECEC"/><path fill-rule="evenodd" clip-rule="evenodd" d="M26.743 27.295c.784.196 2.729.524 3.537.373.9-.168.831-.878.866-2.214l.13-6.912c-.06-.715-.397-1.002-1.06-1.123-.655-.12-.982.043-1.345.589-1.034 1.556-3.266 6.522-2.942 8.346.118.662.244.799.814.941z" fill="#7F451B"/><mask id="c" style="mask-type:alpha" maskUnits="userSpaceOnUse" x="1" y="40" width="94" height="30"><path d="M94.376 40.686H1.484V69.47h92.892V40.686z" fill="#fff"/><path d="M83.152 47.874c.469-1.3 1.251-3.319 1.778-4.354.526-1.035.795-1.086 1.084-.938 1.028.526 3.264 6.71 2.945 7.523-.353.897-4.954.242-5.602-.02-.827-.334-.673-.913-.205-2.211zM17.688 63.825c-.008-.817-.008-.824.669-.816.497.005.786-.037.952.087.267.201.21.839.177 2.825l-.003.359c-.007.86-.01 1.342-.47 1.376-1.164.086-1.185-.22-1.237-.978l-.002-.02a56.296 56.296 0 01-.085-2.718l-.001-.115zm-7.729-4.887a.28.28 0 01.33-.276c.762.138 1.53.272 2.297.404a.278.278 0 01.23.275c-.013 2.368-.235 4.403-.902 5.857-.705 1.534-1.902 2.472-3.916 2.472-2.35 0-3.553-1.787-4.14-4.404-.6-2.68-.61-6.099-.61-9.241 0-3.217.05-6.633.696-8.949.628-2.251 1.852-3.28 4.217-2.052 1.664.864 2.815 2.057 3.537 3.627.706 1.532 1.025 3.473 1.025 5.855a.227.227 0 01-.291.218c-.794-.235-1.588-.48-2.382-.733a.278.278 0 01-.193-.265v-.087c0-3.146-.513-4.696-1.696-5.222-.822-.365-1.292.15-1.557 1.558-.269 1.425-.336 3.717-.336 6.85 0 3.013.033 5.359.284 6.973.248 1.595.731 2.454 1.61 2.516 1.255.089 1.77-1.398 1.797-5.376z" fill="#000"/><path fill-rule="evenodd" clip-rule="evenodd" d="M32.86 59.396a914.365 914.365 0 001.793 7.602.279.279 0 01-.272.344l-1.644-.005-.86-.003a.278.278 0 01-.27-.22 398.25 398.25 0 01-.64-3.014.278.278 0 00-.262-.221 672.472 672.472 0 01-3.247-.129.278.278 0 00-.284.221 411.76 411.76 0 00-.638 3.121.278.278 0 01-.274.224l-1.316-.006-1.174-.005a.279.279 0 01-.271-.34c.612-2.786 1.22-5.53 1.836-8.227.612-2.671 1.24-5.312 1.866-7.918a.28.28 0 01.324-.209c1.091.208 2.189.387 3.287.564a.279.279 0 01.228.215c.605 2.7 1.209 5.368 1.817 8.006zm-2.946 1.843l.235.015a.279.279 0 00.29-.332l-.14-.708c-.173-.873-.347-1.749-.512-2.626l-.286-1.51c-.13-.688-.262-1.379-.39-2.07-.007-.034-.056-.035-.063-.001a418.324 418.324 0 00-.978 4.78c-.134.66-.267 1.323-.4 1.988a.278.278 0 00.253.332c.663.046 1.325.089 1.991.132z" fill="#000"/><path d="M44.861 61.638c.003 0 .004.001.004.004 0 1.736-.208 3.246-.904 4.317-.697 1.073-1.901 1.71-3.916 1.71-2.349 0-3.539-1.079-4.14-2.635-.604-1.567-.619-3.593-.619-5.455 0-1.908.058-3.948.697-5.458.635-1.5 1.876-2.476 4.226-2.355 1.669.085 2.814.54 3.529 1.414.713.871 1.033 2.159 1.033 3.833a.21.21 0 01-.21.21l-2.463-.02a.196.196 0 01-.193-.196c0-2.092-.508-3.008-1.696-3.05-.818-.028-1.3.414-1.566 1.358-.267.941-.327 2.39-.327 4.345 0 1.878.033 3.336.284 4.33.248.988.731 1.51 1.609 1.515 1.247.005 1.763-.99 1.797-3.6a.282.282 0 01.282-.279c.854.006 1.714.009 2.574.012zm6.196 5.595c-.333-.505-.82-1.446-1.064-2.035-.243-.588-.243-.825.032-1.019.653-.458 2.717-.568 3.274-.097.673.569-1.105 3.026-1.38 3.334-.35.395-.529.324-.862-.183zm4.493-3.972l-8.126.05c-1.013-.028-1.092-.114-1.185-.243-.391-.543-1.008-2.907.215-3.553 1.14-.604 6.959-.392 8.412-.295 1.394.094 1.795.258 2.081.57.53.578.712 1.671.495 2.391-.3.99-.877 1.052-1.891 1.08zm3.061-11.569c0-.14.103-.258.242-.276a122.36 122.36 0 007.575-1.294.279.279 0 01.334.273v2.277a.278.278 0 01-.23.275c-1.581.28-3.162.535-4.736.754a.279.279 0 00-.241.276v3.28c0 .164.141.293.305.277a160.15 160.15 0 004.287-.488.279.279 0 01.314.277v2.272c0 .144-.11.264-.253.277-1.465.134-2.93.262-4.394.366a.28.28 0 00-.26.279v3.833c0 .157.13.283.288.279 1.607-.05 3.222-.106 4.837-.168a.28.28 0 01.29.28v2.29a.279.279 0 01-.278.28l-7.8.027a.279.279 0 01-.28-.278V51.692zm6.946-4.084c0 .776-.512 1.51-1.145 1.642-.632.132-1.144-.374-1.144-1.131s.512-1.493 1.144-1.645c.633-.152 1.145.359 1.145 1.134zm-3.512.741c0 .747-.516 1.45-1.145 1.551-.627.102-1.144-.422-1.144-1.154s.517-1.407 1.145-1.525c.628-.118 1.144.38 1.144 1.128zm15.707 18.616a.279.279 0 01-.277.28 947.5 947.5 0 00-2.404.016.279.279 0 01-.28-.28v-7.978a.28.28 0 00-.32-.277 282.082 282.082 0 01-3.07.44v7.842a.279.279 0 01-.278.279c-.803.003-1.606.008-2.403.014a.279.279 0 01-.28-.28V49.935a.28.28 0 01.206-.27c.797-.21 1.6-.425 2.403-.64a.279.279 0 01.351.27v6.696a.02.02 0 00.025.02c1.046-.197 2.091-.395 3.144-.613a.278.278 0 00.222-.273v-7.067a.28.28 0 01.188-.264 98.625 98.625 0 002.394-.859.28.28 0 01.379.262v19.77zM89.67 51.94c-2.238-.424-6.035-.346-8.17.234-.763.207-.983.402-.95.57.073.383 1.287.274 2.595.156.708-.064 1.445-.13 2.043-.123.89.011 1.872.104 2.752.187.63.06 1.206.114 1.66.13 2.086.075 1.872-.812.07-1.153zm-74.124 2.135c.208-.463.45-1.002.508-1.206.095-.333.272-.81.478-1.366l.148-.401c.366-.994 1.072-2.532 1.609-3.222.374-.48 3.933 6.797 3.767 7.275a4.593 4.593 0 01-.063.092c-.34.296-1.784.046-3.25-.222a1.728 1.728 0 00-.203-.23c-.276-.253-.527-.16-.787.052-1.292-.225-2.4-.364-2.51-.02-.08.101.094-.288.303-.752z" fill="#000"/><path d="M15.242 54.827c-.653 2.011-1.193 3.998-1.47 5.583-.138.787-.114 1.12.75 1.31.848.188 2.51.239 3.835.279l.17.005c1.281.04 2.223.068 3.023-.011 2.092-.207 2.137-.952 1.746-2.703a28.081 28.081 0 00-1.24-4.135.213.213 0 01-.063.092l-.033.046a4.706 4.706 0 00-.067.095c-.076.11-.138.212-.197.31-.118.196-.224.371-.403.542-1.095 1.048-1.695.103-2.216-.718-.114-.178-.223-.351-.334-.496l-.168-.031c-.277-.05-.554-.101-.822-.148a4.824 4.824 0 00-.333.309c-.185.182-.38.375-.597.508-.64.393-1.234-.223-1.581-.837zm33.733.089c-1.755.012-2.914 2.284-2.847 3.475.024.433.478.372 1.339.256.376-.05.83-.11 1.361-.145.451-.03.96-.049 1.445-.067a30.25 30.25 0 001.499-.077c.684-.064.784-.18.748-.484-.035-.305-.207-.8-.458-1.278-.64-1.22-1.716-1.688-3.087-1.68zm.069-.725c-.253.006-.483.01-.71-.036-.59-.121.435-1.33.702-1.554 2.416-2.035 5.145.148 5.235 1.242.016.183-.122.21-.397.265-.049.01-.101.02-.158.033-.902.196-1.33.397-1.602.525-.367.172-.453.212-1.037-.07-.893-.43-1.512-.416-2.033-.404zm4.324 3.385c.058.154.11.294.155.398.148.341.33.329.702.305.288-.019.69-.045 1.279.078.379.08.706.212.974.321.462.188.748.303.816-.051.366-1.894-2.516-4.631-4.612-3.485-.496.27-.291.578-.002 1.014.1.151.211.318.306.504.144.282.274.627.382.916zm36.09-2.944c-3.57-.652-6.597-.528-9.91.606-.918.315-.941.43-.981.652-.141.788.202.948.789 1.224.125.059.263.123.41.2.584.309.349.88.004 1.717-.45 1.092-1.085 2.635-.324 4.633 1.8 4.725 8.611 5.444 11.496 1.224 1.837-2.686 1.108-4.795.678-6.039-.166-.483-.288-.836-.198-1.042.06-.137.234-.307.431-.499.787-.767 1.936-1.885-2.395-2.676z" fill="#000"/></mask><g mask="url(#c)"><path d="M83.152 47.874c.469-1.3 1.251-3.318 1.778-4.354.526-1.035.795-1.086 1.084-.938 1.028.526 3.264 6.71 2.945 7.523-.353.897-4.954.242-5.602-.02-.827-.334-.673-.912-.205-2.211zM17.688 63.825c-.008-.817-.008-.824.669-.816.497.005.786-.037.952.087.267.201.21.839.177 2.825l-.003.359c-.007.86-.01 1.342-.47 1.376-1.164.086-1.185-.22-1.237-.978l-.002-.02a56.295 56.295 0 01-.085-2.717l-.001-.116zM9.96 58.938a.28.28 0 01.33-.276c.762.138 1.53.272 2.297.404a.275.275 0 01.23.275c-.013 2.368-.235 4.403-.902 5.857-.705 1.534-1.902 2.472-3.916 2.472-2.35 0-3.553-1.787-4.14-4.404-.6-2.68-.61-6.099-.61-9.241-.001-3.217.05-6.633.696-8.949.628-2.251 1.852-3.28 4.217-2.052 1.664.864 2.815 2.057 3.537 3.627.706 1.532 1.025 3.473 1.025 5.855a.227.227 0 01-.291.218 116.45 116.45 0 01-2.382-.733.278.278 0 01-.193-.265v-.087c0-3.146-.513-4.696-1.696-5.222-.822-.365-1.292.15-1.557 1.559-.269 1.424-.336 3.716-.336 6.849 0 3.013.033 5.359.284 6.973.248 1.595.731 2.454 1.61 2.516 1.255.089 1.77-1.398 1.797-5.376z" fill="#E41C53"/><path fill-rule="evenodd" clip-rule="evenodd" d="M32.86 59.396a914.365 914.365 0 001.793 7.602.279.279 0 01-.272.344l-1.644-.005-.86-.003a.278.278 0 01-.27-.22c-.217-.998-.429-2.005-.64-3.014a.278.278 0 00-.262-.221 672.472 672.472 0 01-3.247-.129.278.278 0 00-.284.221 411.76 411.76 0 00-.638 3.121.278.278 0 01-.274.224l-1.316-.006-1.174-.005a.28.28 0 01-.271-.34c.612-2.786 1.22-5.53 1.836-8.226.612-2.672 1.24-5.313 1.866-7.919a.28.28 0 01.324-.209c1.091.208 2.189.388 3.287.564a.279.279 0 01.228.215c.605 2.7 1.209 5.368 1.817 8.006zm-2.946 1.843l.235.015a.279.279 0 00.29-.332l-.14-.708c-.173-.873-.347-1.749-.512-2.626l-.286-1.51c-.13-.688-.262-1.379-.39-2.07-.007-.034-.056-.035-.063-.001a418.324 418.324 0 00-.978 4.78c-.134.66-.267 1.323-.4 1.988a.278.278 0 00.253.332c.663.046 1.325.09 1.991.132z" fill="#E41C53"/><path d="M44.862 61.638c.002 0 .004.002.004.004 0 1.736-.208 3.246-.904 4.317-.697 1.073-1.902 1.71-3.916 1.71-2.35 0-3.539-1.079-4.14-2.635-.604-1.567-.619-3.593-.619-5.454 0-1.91.058-3.949.697-5.46.635-1.498 1.876-2.475 4.226-2.354 1.669.085 2.813.54 3.529 1.414.713.871 1.033 2.159 1.033 3.833a.21.21 0 01-.21.21c-.821-.006-1.642-.012-2.463-.02a.196.196 0 01-.193-.196c0-2.092-.508-3.008-1.696-3.05-.818-.028-1.3.414-1.566 1.358-.267.941-.327 2.39-.327 4.345 0 1.878.033 3.336.284 4.33.248.988.731 1.51 1.609 1.515 1.247.005 1.763-.99 1.797-3.6a.282.282 0 01.282-.279c.854.006 1.714.009 2.573.012zm6.195 5.595c-.333-.505-.82-1.446-1.064-2.035-.243-.588-.243-.825.032-1.019.653-.458 2.717-.568 3.274-.097.673.569-1.105 3.026-1.38 3.335-.35.394-.529.323-.862-.184zm4.493-3.971l-8.126.05c-1.013-.029-1.092-.115-1.185-.244-.391-.543-1.008-2.907.215-3.553 1.14-.604 6.959-.392 8.412-.295 1.394.094 1.795.258 2.081.571.53.578.712 1.67.495 2.39-.3.99-.877 1.052-1.891 1.08zm3.061-11.57c0-.14.103-.258.242-.276a122.36 122.36 0 007.575-1.294.279.279 0 01.334.273v2.278a.278.278 0 01-.23.274c-1.581.28-3.162.535-4.736.754a.279.279 0 00-.241.276v3.28c0 .165.141.293.305.277a160.15 160.15 0 004.287-.488.279.279 0 01.314.277v2.272c0 .144-.11.264-.253.277-1.465.134-2.93.262-4.394.366a.28.28 0 00-.26.279v3.833c0 .157.13.283.288.279 1.607-.05 3.222-.106 4.837-.168a.28.28 0 01.29.28v2.29a.279.279 0 01-.278.28l-7.8.028a.279.279 0 01-.28-.28V51.693zm6.946-4.084c0 .776-.512 1.51-1.145 1.642-.632.132-1.144-.374-1.144-1.131s.512-1.493 1.144-1.645c.633-.152 1.145.359 1.145 1.134zm-3.512.741c0 .747-.516 1.45-1.145 1.551-.627.102-1.144-.422-1.144-1.154s.517-1.406 1.145-1.525c.628-.118 1.144.38 1.144 1.128zm15.708 18.616a.279.279 0 01-.277.28 947.5 947.5 0 00-2.404.016.279.279 0 01-.28-.28v-7.978a.28.28 0 00-.32-.277 279.98 279.98 0 01-3.07.44v7.842a.279.279 0 01-.278.279c-.803.003-1.606.008-2.403.014a.279.279 0 01-.28-.28V49.935a.28.28 0 01.206-.27c.797-.21 1.6-.425 2.403-.64a.279.279 0 01.351.27v6.696a.02.02 0 00.025.02c1.046-.197 2.091-.395 3.144-.612a.278.278 0 00.222-.273v-7.068a.28.28 0 01.188-.264 98.467 98.467 0 002.394-.859.28.28 0 01.379.262v19.77zM89.67 51.94c-2.238-.424-6.035-.346-8.17.234-.763.208-.983.402-.95.57.073.383 1.287.274 2.595.156.708-.064 1.445-.13 2.043-.123.89.011 1.872.104 2.752.187.63.06 1.206.114 1.66.13 2.086.076 1.872-.812.07-1.153zm-74.124 2.135c.208-.463.45-1.002.508-1.206.095-.333.272-.81.478-1.366l.148-.401c.366-.994 1.072-2.532 1.609-3.221.374-.48 3.933 6.796 3.767 7.274a4.593 4.593 0 01-.063.092c-.34.296-1.784.046-3.25-.221a1.728 1.728 0 00-.203-.23c-.276-.254-.527-.16-.787.05-1.292-.224-2.4-.363-2.51-.02-.08.102.094-.286.303-.751z" fill="#E41C53"/><path d="M15.242 54.827c-.653 2.011-1.193 3.998-1.47 5.583-.138.787-.114 1.12.75 1.311.848.187 2.51.238 3.835.278l.17.005c1.281.04 2.223.068 3.023-.011 2.092-.207 2.137-.952 1.746-2.703a28.083 28.083 0 00-1.24-4.135.213.213 0 01-.063.092l-.033.047a4.706 4.706 0 00-.067.094c-.076.11-.138.212-.197.31-.118.196-.224.372-.403.542-1.095 1.048-1.695.103-2.216-.718-.114-.178-.223-.351-.334-.496l-.168-.031-.822-.148a4.8 4.8 0 00-.333.309c-.185.182-.38.375-.597.508-.64.393-1.234-.223-1.581-.837zm33.733.089c-1.755.012-2.914 2.285-2.847 3.475.024.433.478.372 1.339.257.376-.05.83-.112 1.361-.146.451-.03.96-.048 1.445-.067a30.25 30.25 0 001.499-.077c.684-.064.784-.18.748-.484-.035-.305-.207-.8-.458-1.278-.64-1.22-1.716-1.688-3.087-1.68zm.069-.724c-.253.005-.483.01-.71-.037-.59-.121.435-1.33.702-1.554 2.416-2.035 5.145.149 5.235 1.242.016.183-.122.21-.397.265-.049.01-.101.02-.158.033-.902.196-1.33.397-1.602.525-.367.172-.453.212-1.037-.07-.893-.43-1.512-.416-2.033-.404zm4.324 3.385c.058.154.11.294.155.398.148.341.33.329.702.305.288-.019.69-.045 1.279.078.379.08.706.212.974.321.462.188.748.303.816-.051.366-1.894-2.516-4.631-4.612-3.485-.496.27-.291.578-.002 1.014.1.151.211.318.306.504.144.282.274.627.382.916zm36.09-2.945c-3.57-.652-6.597-.528-9.91.606-.918.315-.941.43-.981.652-.141.788.202.949.789 1.224.125.059.263.123.41.2.584.309.349.88.004 1.717-.45 1.092-1.085 2.636-.324 4.633 1.8 4.725 8.611 5.444 11.496 1.224 1.837-2.686 1.108-4.795.678-6.039-.166-.483-.288-.836-.198-1.042.06-.137.234-.307.431-.499.787-.767 1.936-1.885-2.395-2.676z" fill="#E41C53"/><path d="M84.93 43.521l-1.572-.802 1.571.802zm-1.778 4.354l1.658.6-1.658-.6zm2.862-5.292l-.804 1.573.804-1.573zm2.945 7.523l-1.641-.648 1.64.648zm-5.602-.02l-.66 1.64.66-1.64zm-65 12.923l.02-1.767h-.001l-.02 1.767zm-.67.817l1.764-.017-1.764.017zm1.621-.73l-1.056 1.415 1.056-1.414zm.178 2.826l-1.763-.029v.001l1.763.028zm-.004.358l1.763.013-1.763-.013zm-.47 1.376l.13 1.762-.13-1.762zm-1.237-.977l1.76-.122-1.76.122zm-.001-.02l-1.76.122 1.76-.122zm-.085-2.718l1.763-.013-1.764.013zm-5.775 1.257l1.602.739-1.602-.739zm-8.056-1.932l-1.72.388 1.72-.388zm.087-18.19l-1.699-.475 1.699.475zm4.217-2.051l-.812 1.568.812-1.569zm3.537 3.626l1.601-.74-1.601.74zm-3.537-.234l-.715 1.616.715-1.616zm-1.558 1.559l1.733.328-1.733-.328zm-.052 13.822l-1.742.272 1.742-.272zm1.61 2.516l.124-1.762-.124 1.762zm24.697-4.918l1.718-.398-1.718.398zm-.122 7.94l-.005 1.768.005-1.767zm-7.79-.026l-.01 1.767.01-1.767zm.39-8.571l-1.718-.395 1.718.395zm4.577 2.5l-.113 1.764.113-1.764zm.385-1.025l-1.73.345 1.73-.345zm-.512-2.626l1.733-.328-1.733.328zm-.286-1.51l-1.732.33 1.732-.33zm-.453-2.071l1.726.362-1.726-.362zm-.707 3.434l1.729.348-1.729-.348zm-.271 1.346l1.728.35-1.728-.35zm16.792 2.851l-.006 1.767.006-1.767zm-.9 4.321l1.477.964-1.477-.964zm-8.056-.924l1.645-.637-1.645.637zm.078-10.914l1.623.69-1.623-.69zm4.225-2.355l-.09 1.764.09-1.764zm3.53 1.414l1.362-1.12-1.363 1.12zm-3.53.778l.062-1.766-.062 1.766zm-1.566 1.358l1.696.482-1.696-.483zM38.6 63.99l-1.71.433 1.71-.433zm1.61 1.515l.007-1.767-.008 1.767zm9.783-.306l-1.63.677h.001l1.629-.677zm1.063 2.035l1.472-.972-1.472.972zm-1.031-3.054l1.012 1.447-1.012-1.447zm3.273-.097l-1.136 1.351 1.136-1.35zm-1.379 3.334l-1.316-1.175 1.316 1.175zm-4.495-4.104l-.05 1.766h.06l-.01-1.766zm8.126-.05l.011 1.767.02-.001h.018l-.049-1.766zm-9.311-.194l-1.43 1.033v.002h.001l1.429-1.035zm.215-3.553l.822 1.563v-.001l-.822-1.562zm8.412-.295l.118-1.763-.118 1.763zm2.08.57l-1.297 1.196v.001l1.298-1.196zm.495 2.391l1.688.514v-.001l-1.688-.513zm6.97-12.932l-.358-1.73.359 1.73zm0-2.776l.411 1.719-.41-1.719zm-3.51 3.427l.28 1.744-.28-1.744zm0-2.68l.325 1.737-.326-1.736zm10.501 11.945l.241 1.75h.001l-.242-1.75zm.024-3.154l-.328-1.737.328 1.737zM81.5 52.175l-.462-1.706.462 1.706zm8.17-.234l.328-1.736-.328 1.736zm-9.121.804l1.732-.333v-.003l-.001-.002-1.731.338zm2.595.155l-.158-1.76.158 1.76zm2.043-.122l-.023 1.766.023-1.766zm2.752.187l.165-1.76-.165 1.76zm1.66.13l.063-1.766-.063 1.766zm-73.546-.226l1.694.488-1.694-.488zm-.508 1.206l-1.608-.725 1.608.725zm.986-2.572l-1.653-.615 1.653.616zm.148-.4l-1.654-.612 1.654.611zm1.609-3.222l-1.39-1.088v.001l1.39 1.087zm.251 6.915l-1.192 1.302 1.192-1.302zm-4.768 5.614l-1.737-.305 1.737.305zm.75 1.311l.379-1.725-.38 1.725zm3.835.278l.054-1.766L18.357 62zm.17.005l.053-1.766-.054 1.766zm3.023-.01l.173 1.757-.173-1.758zm1.746-2.704l1.72-.386-1.72.386zm-1.336-3.996l-1.435-1.028 1.435 1.028zm-.067.095l-1.45-1.006 1.45 1.005zm-.197.31l1.509.914-1.509-.915zm-.402.541l-1.218-1.278 1.218 1.278zm-2.217-.718l-1.488.949 1.488-.949zm-.502-.527l-.316 1.739.316-1.739zm-1.154.161l1.236 1.26-1.236-1.26zm-.598.508l-.92-1.507h-.001l.921 1.507zm29.305 2.727l1.76-.099-1.76.099zm2.847-3.474l-.011-1.767.01 1.767zm-1.508 3.73L47.7 60.4l-.233-1.751zm1.36-.145l-.113-1.763.114 1.763zm1.446-.067l-.066-1.765.066 1.765zm1.499-.077l-.165-1.759h-.001l.166 1.76zm.748-.484l-1.75.206 1.75-.206zm-.458-1.278l1.56-.822-1.56.822zm-3.728-2.44l.354-1.731-.354 1.73zm.71.036l.039 1.767-.039-1.767zm-.008-1.59l1.134 1.353-1.134-1.353zm5.235 1.241l-1.757.147 1.757-.147zm-.397.266l-.344-1.733.344 1.733zm-.158.032l-.373-1.727.373 1.727zm-1.602.525l-.748-1.6.748 1.6zm-1.037-.069l.765-1.592-.765 1.592zm2.446 3.378l-1.618.702 1.618-.702zm-.155-.398l-1.65.621 1.65-.621zm.857.703l-.114-1.764.114 1.764zm1.279.078l.36-1.729-.36 1.73zm.974.321l.66-1.638-.66 1.638zm.816-.051l1.731.335-1.73-.335zm-4.612-3.485l.844 1.551-.844-1.551zm-.002 1.014l1.468-.979-1.468.979zm.306.504l1.57-.806h-.001l-1.569.806zm26.562-1.423l-.57-1.672.57 1.672zm9.91-.606l-.316 1.738.316-1.738zm-10.891 1.259l-1.736-.313 1.736.313zm.788 1.223l.747-1.6-.747 1.6zm.41.2l.821-1.563-.821 1.564zm.005 1.717l1.63.674-1.63-.674zm-.324 4.634l-1.647.63 1.647-.63zm11.496 1.224l-1.454-1v.001l1.454.999zm.678-6.04l1.666-.578-1.666.578zm-.199-1.042l-1.614-.71 1.614.71zm.432-.499l1.229 1.267-1.23-1.267zm-14.48-10.373l.62 1.654-.62-1.654zm-2.394.858l.577 1.67-.577-1.67zm-.41 7.605l-.354-1.73.355 1.73zm-5.922-5.733l-.451-1.707.45 1.708zm.073 17.636l-.012-1.767.012 1.767zm2.403-.014l.007 1.767-.007-1.767zm3.348-8.56l.261 1.748-.261-1.748zm3.004 8.518l.012 1.767-.012-1.767zm-18.585.094l.007 1.767-.007-1.767zm7.789-2.877l.067 1.765-.067-1.765zm-4.838.167l-.053-1.766.053 1.766zm-.027-4.39l-.125-1.763.125 1.763zm4.394-.366l.16 1.76-.16-1.76zm-39.672 7.22l-1.729-.35 1.729.35zm-.274.223l-.006 1.767.006-1.767zm32.59-15.9l-.24-1.75.24 1.75zm-35.08 15.889l.007-1.767-.007 1.767zm-.271-.34l-1.722-.38 1.722.38zm42.926-16.843l-.348-1.732.349 1.732zm-21.866 7.1l.012-1.766-.012 1.767zm.304 4.42h-1.763 1.764zm-17.194-.867l-1.73-.345 1.73.345zm.253.332l.123-1.763-.123 1.763zM10.05 51.99l.535-1.683-.535 1.683zm31.955 9.915l1.763.023-1.763-.023zm.282-.28l.012-1.766-.011 1.767zM66.69 67.31l-.006-1.767.006 1.767zM29.11 54.008l-1.734.324 1.733-.324zm37.036 3.039l.219 1.753-.219-1.753zM30.15 61.254l-.114 1.764.114-1.764zm.29-.332l1.73-.344-1.73.344zM27.204 50.82l1.714.413-1.714-.413zm.324-.21l.327-1.736-.327 1.736zm34.269 3.09l.242 1.75-.242-1.75zm.063 3.834l-.172-1.759.172 1.759zm-31.045-6.36l-.279 1.745.28-1.745zm.228.215l1.72-.388-1.72.388zm35.49 1.557l-.307-1.74.307 1.74zm-24.434 4.256l-.018 1.767.018-1.767zm-31.809 1.46l-.314 1.739.314-1.739zm-.33.276l1.764.011-1.764-.011zm24.694 8.06l-1.715.412 1.715-.412zm-.272.344l-.006 1.767.006-1.767zM30.968 64.1l1.725-.362-1.725.362zm-.262-.221l-.067 1.765.067-1.765zm-3.248-.129l-.075 1.765.075-1.765zm-.284.221l1.725.363-1.725-.363zm47.898 3.29l-.012-1.766.012 1.766zm-62.486-8.195l-.297 1.742.297-1.742zm.231.275l1.763.01-1.763-.01zm19.06 7.993l-.005 1.767.006-1.767zm-.27-.22l-1.723.377 1.723-.376zm39.443-18.09l.456 1.707-.456-1.707zm-58.617 3.7l.5-1.694-.5 1.694zM83.357 42.72c-.581 1.144-1.397 3.258-1.865 4.556l3.317 1.2c.469-1.3 1.22-3.225 1.69-4.152l-3.142-1.604zm3.459-1.71a2.228 2.228 0 00-1.026-.255c-.508.002-.94.185-1.27.427-.54.395-.897 1.014-1.163 1.538l3.142 1.604c.11-.216.184-.334.223-.39.046-.066.009.006-.123.102a1.37 1.37 0 01-.798.253 1.3 1.3 0 01-.592-.132l1.607-3.146zm3.782 9.744c.137-.347.152-.672.153-.842a4.06 4.06 0 00-.038-.571 9.694 9.694 0 00-.229-1.12c-.2-.78-.505-1.709-.845-2.609a24.189 24.189 0 00-1.127-2.566 8.97 8.97 0 00-.634-1.054c-.18-.25-.533-.71-1.063-.982l-1.605 3.147c-.273-.14-.331-.292-.193-.1.092.129.219.337.373.632.306.583.643 1.36.951 2.175.308.813.567 1.616.728 2.24.082.316.128.55.148.699.01.075.008.095.008.074a1.375 1.375 0 01.092-.418l3.281 1.295zm-7.901.972c.377.153.985.267 1.48.346.576.092 1.277.177 1.975.223.68.045 1.436.059 2.089-.022.32-.04.71-.113 1.082-.27.333-.139.974-.48 1.275-1.249l-3.281-1.294c.214-.545.633-.711.644-.716.05-.021.02 0-.152.021-.33.041-.83.043-1.425.004a18.702 18.702 0 01-1.652-.187c-.56-.09-.77-.155-.717-.133l-1.318 3.277zm-1.205-4.45c-.116.322-.234.658-.322.972-.084.302-.173.7-.165 1.128.008.47.137 1.01.514 1.494.353.454.806.706 1.178.856l1.319-3.277c-.042-.017.12.037.283.248.085.108.147.23.185.352a.926.926 0 01.046.262c.002.08-.013.068.037-.114.048-.17.124-.394.242-.72l-3.317-1.201zM18.376 61.242c-.12-.001-.391-.008-.637.024a2.037 2.037 0 00-1.34.726 2.176 2.176 0 00-.462 1.214c-.018.216-.014.467-.013.635l3.527-.032-.002-.24.002-.071c0 .002-.006.082-.039.197a1.503 1.503 0 01-.28.53 1.494 1.494 0 01-.94.546c-.056.007-.072.003.145.005l.039-3.534zm1.988.44c-.55-.412-1.15-.432-1.344-.44-.128-.004-.259-.002-.35-.001-.104.001-.194.003-.293.001l-.04 3.534c.148.001.281 0 .376-.001a5.993 5.993 0 01.18 0c.01 0 .002 0-.018-.003a.935.935 0 01-.114-.02 1.373 1.373 0 01-.51-.241l2.113-2.83zm.885 4.268c.015-.93.04-1.68.023-2.172a4.027 4.027 0 00-.115-.89 2.184 2.184 0 00-.793-1.206l-2.112 2.829a1.359 1.359 0 01-.502-.712c-.022-.08-.01-.084-.003.102.013.373-.007.935-.024 1.992l3.526.057zm-.004.343l.004-.343-3.526-.056-.004.373 3.526.026zm-2.103 3.125c.44-.033.947-.195 1.366-.604.386-.375.545-.812.618-1.1.125-.492.117-1.092.12-1.42l-3.527-.027c-.002.227-.003.376-.009.497-.007.128-.015.131 0 .077a1.23 1.23 0 01.34-.56 1.36 1.36 0 01.832-.387l.26 3.524zm-3.126-2.617c.01.15.027.444.084.719.061.3.206.782.62 1.203.422.43.926.598 1.32.665.373.064.758.056 1.102.03l-.26-3.524c-.237.017-.292.004-.25.01.06.01.338.071.602.341.256.261.313.53.32.562.004.02.001.014-.003-.036a7.963 7.963 0 01-.017-.214l-3.518.244zm-.001-.02l.001.02 3.518-.244-.001-.02-3.518.244zm-.09-2.828c.005.72.037 2.06.09 2.828l3.518-.244a54.663 54.663 0 01-.081-2.609l-3.527.026zm0-.112v.113l3.527-.026-.001-.119-3.527.032zm-3.04-6.516c-.765-.132-1.527-.265-2.282-.402L9.975 60.4a258 258 0 002.314.408l.595-3.483zm.631 8.612c.836-1.82 1.05-4.183 1.064-6.586l-3.526-.02c-.013 2.334-.242 4.04-.742 5.128l3.204 1.478zm-5.518 3.5c1.29 0 2.448-.304 3.426-.956.973-.65 1.638-1.555 2.092-2.544l-3.204-1.478c-.25.545-.536.876-.842 1.08-.3.2-.747.364-1.472.364v3.534zm-5.86-5.783c.323 1.441.857 2.864 1.796 3.952 1 1.158 2.372 1.831 4.064 1.831v-3.534c-.657 0-1.06-.22-1.397-.609-.397-.46-.759-1.24-1.022-2.415l-3.44.775zm-.654-9.63c0 3.088.002 6.72.654 9.63l3.44-.775c-.549-2.451-.567-5.656-.567-8.854H1.484zm.762-9.423c-.723 2.596-.762 6.276-.762 9.424h3.527c0-3.285.064-6.438.632-8.473L2.246 44.6zm6.727-3.145c-1.431-.744-3.015-1.055-4.438-.249-1.308.74-1.94 2.142-2.289 3.394l3.397.95c.279-1 .573-1.237.626-1.267a.096.096 0 01.032-.011.48.48 0 01.135-.003c.162.015.457.086.914.323l1.623-3.137zM13.3 45.91c-.898-1.95-2.339-3.423-4.327-4.455l-1.622 3.137c1.338.695 2.199 1.607 2.747 2.798l3.202-1.48zm1.186 6.596c0-2.518-.333-4.743-1.186-6.596l-3.202 1.48c.558 1.212.862 2.869.862 5.116h3.526zm-4.97 1.168c.805.257 1.61.505 2.417.744l1-3.39a108.88 108.88 0 01-2.347-.721l-1.07 3.367zm-1.422-2.036v.087h3.526v-.087H8.094zm-.647-3.606c.004.002.159.035.33.561.189.58.317 1.531.317 3.045h3.526c0-1.632-.128-3.029-.49-4.142-.381-1.167-1.075-2.171-2.254-2.695l-1.429 3.23zm.89.27c.054-.286.107-.467.148-.57.044-.113.045-.063-.052.035a1.056 1.056 0 01-.622.296c-.244.028-.384-.04-.364-.031l1.43-3.23c-.391-.174-.898-.316-1.47-.25a2.47 2.47 0 00-1.492.742c-.649.663-.904 1.61-1.044 2.353l3.466.655zm-.306 6.522c0-3.17.074-5.29.306-6.522l-3.466-.655c-.304 1.616-.366 4.081-.366 7.177h3.526zm.264 6.701c-.226-1.452-.264-3.649-.264-6.701H4.505c0 2.973.029 5.468.305 7.245l3.485-.544zm-.01 1.026a.561.561 0 01.26.092c.084.055.1.097.073.054a1.62 1.62 0 01-.148-.362 5.9 5.9 0 01-.176-.81l-3.484.544c.137.879.365 1.771.813 2.494.502.808 1.309 1.435 2.415 1.513l.248-3.525zm-.089-3.626c-.013 1.982-.155 3.096-.345 3.66-.09.266-.133.23-.014.13a.693.693 0 01.45-.164l-.25 3.525c.705.05 1.441-.129 2.064-.651.569-.478.892-1.118 1.091-1.71.388-1.151.517-2.771.53-4.767l-3.526-.023zm28.172 7.66a897.264 897.264 0 01-1.79-7.588l-3.437.796a944.957 944.957 0 001.797 7.616l3.43-.824zm-3.636 2.518l1.643.005.012-3.534-1.644-.005-.011 3.534zm-.86-.003l.86.003.011-3.534-.86-.003-.011 3.534zm-2.63-4.639c.21 1.01.423 2.022.642 3.03l3.446-.754a370.98 370.98 0 01-.637-3l-3.451.724zm-1.86 1.053c1.086.047 2.17.088 3.257.13l.133-3.532a644.97 644.97 0 01-3.239-.128l-.15 3.53zm.882 1.926c.21-1.044.42-2.08.635-3.107l-3.451-.726c-.218 1.042-.43 2.09-.64 3.135l3.456.698zm-3.326 1.636l1.318.006.012-3.534-1.313-.006-.017 3.534zm-1.173-.005l1.173.005.017-3.534-1.176-.005-.014 3.534zm-.146-10.728a958.563 958.563 0 00-1.84 8.242l3.444.76a959.309 959.309 0 011.833-8.212l-3.437-.79zm1.87-7.936a778.408 778.408 0 00-1.87 7.936l3.437.79c.61-2.663 1.237-5.297 1.861-7.9l-3.428-.826zm5.604-.977a118.026 118.026 0 01-3.239-.556l-.655 3.472c1.117.212 2.236.396 3.336.573l.558-3.49zm3.484 9.567c-.607-2.633-1.21-5.298-1.815-7.996l-3.44.775c.606 2.701 1.21 5.374 1.82 8.017l3.435-.796zm-4.315.493l-.234-.015-.227 3.527.234.014.227-3.526zm-1.692 1.068l.14.706 3.46-.687-.142-.71-3.458.69zm-.516-2.644c.167.887.343 1.772.516 2.644l3.458-.69c-.173-.875-.345-1.741-.508-2.608l-3.466.654zm-.285-1.506l.285 1.506 3.466-.654-.287-1.514-3.464.662zm-.392-2.077c.13.695.261 1.389.392 2.077l3.464-.661c-.13-.69-.261-1.376-.39-2.065l-3.466.649zm2.693 3.457c.228-1.138.465-2.276.704-3.42l-3.451-.724a417.86 417.86 0 00-.71 3.449l3.457.695zm-.272 1.348l.272-1.348-3.458-.696-.27 1.343 3.456.701zM29.4 61.12c.131-.66.265-1.32.398-1.982l-3.456-.7c-.133.66-.268 1.325-.4 1.993l3.458.69zm.628-1.643c-.667-.043-1.325-.085-1.98-.132L27.8 62.87c.668.047 1.336.09 2.001.133l.227-3.527zm15.411 7.447c.993-1.529 1.19-3.488 1.19-5.28l-3.527-.001c0 1.68-.22 2.74-.618 3.353l2.955 1.928zm-5.393 2.514c2.419 0 4.278-.798 5.393-2.514l-2.955-1.928c-.28.43-.829.908-2.438.908v3.534zm-5.784-3.765c.393 1.018 1.027 2 2.051 2.714 1.025.715 2.284 1.051 3.733 1.051v-3.534c-.9 0-1.412-.204-1.719-.418-.309-.215-.569-.55-.776-1.087l-3.29 1.274zm-.739-6.092c0 1.777-.007 4.159.739 6.092l3.289-1.275c-.464-1.2-.501-2.872-.501-4.817h-3.527zm.837-6.149c-.802 1.895-.837 4.302-.837 6.149h3.527c0-1.97.08-3.644.557-4.769l-3.246-1.38zm5.94-3.43c-1.434-.074-2.705.18-3.763.826-1.066.649-1.749 1.593-2.176 2.604l3.246 1.38c.207-.488.46-.782.762-.965.309-.189.833-.363 1.75-.316l.18-3.529zm4.8 2.058c-1.157-1.415-2.882-1.96-4.8-2.06l-.18 3.53c1.419.072 1.983.438 2.255.77l2.726-2.241zm1.433 4.954c0-1.846-.342-3.623-1.433-4.954l-2.725 2.24c.336.41.633 1.21.633 2.713h3.526zM42.08 58.97c.824.008 1.648.014 2.469.02l.024-3.534c-.82-.006-1.64-.012-2.457-.02l-.036 3.534zm-1.932-3.246c.075.003.032.014-.055-.037-.096-.055-.135-.12-.131-.114.013.023.064.13.108.384.043.25.072.592.072 1.05h3.526c0-1.117-.122-2.249-.625-3.153a3.18 3.18 0 00-1.185-1.226 3.363 3.363 0 00-1.587-.436l-.123 3.532zm.191.074c.04-.141.075-.215.09-.244.015-.027.005.001-.047.046a.566.566 0 01-.192.11c-.06.019-.082.012-.042.014l.123-3.532c-.764-.027-1.556.173-2.214.752-.611.537-.928 1.246-1.11 1.89l3.392.964zm-.26 3.862c0-2.005.073-3.2.26-3.862l-3.392-.965c-.345 1.22-.394 2.92-.394 4.827h3.526zm.23 3.898c-.185-.738-.23-1.958-.23-3.898h-3.526c0 1.816.023 3.513.337 4.763l3.42-.865zm-.092.18c-.044 0-.027-.006.026.014a.46.46 0 01.155.097c.035.035.034.047.011.003a1.496 1.496 0 01-.1-.294l-3.419.865c.166.656.461 1.387 1.05 1.96.638.622 1.44.885 2.261.89l.016-3.535zm.026-1.855a10.15 10.15 0 01-.098 1.411c-.056.355-.123.53-.156.596-.025.049.004-.027.123-.098.114-.068.181-.053.105-.054l-.016 3.534c.548.002 1.147-.106 1.71-.44.568-.338.961-.824 1.226-1.35.484-.961.615-2.217.632-3.553l-3.526-.046zm4.625-2.012c-.86-.003-1.718-.006-2.568-.011l-.023 3.534c.857.005 1.72.008 2.579.011l.012-3.534zm3.496 6.005c.28.676.817 1.719 1.22 2.331l2.944-1.946c-.262-.4-.7-1.238-.907-1.739l-3.257 1.354zm.649-3.143a2.282 2.282 0 00-.657.699c-.21.35-.296.72-.304 1.064-.015.571.193 1.09.312 1.38l3.258-1.353a1.828 1.828 0 01-.067-.177c-.004-.014.026.08.022.24a1.37 1.37 0 01-.194.659 1.25 1.25 0 01-.346.382l-2.024-2.894zm5.422-.001c-.507-.428-1.125-.575-1.492-.638a7.1 7.1 0 00-2.603.089c-.375.086-.888.241-1.327.55l2.025 2.893c-.074.052-.111.062-.078.05a1.3 1.3 0 01.166-.048 3.63 3.63 0 011.218-.052c.064.012.084.02.069.014a.883.883 0 01-.251-.156l2.273-2.702zm-1.2 5.86c.242-.27.829-1.077 1.276-1.897.223-.409.477-.938.608-1.478.09-.373.336-1.623-.684-2.485l-2.273 2.702a1.332 1.332 0 01-.468-.838c-.021-.17.009-.258-.002-.212-.022.09-.103.3-.276.617-.16.293-.35.593-.522.841-.185.269-.297.407-.29.4l2.632 2.35zm-3.65-.385c.1.154.245.362.43.552.174.182.52.492 1.048.621.602.147 1.13-.01 1.496-.22a2.77 2.77 0 00.678-.568l-2.635-2.35c-.042.048.031-.05.206-.15.223-.127.62-.26 1.091-.145.399.097.615.32.651.358.046.046.043.055-.022-.043l-2.944 1.945zm-2.15-3.127l8.126-.05-.022-3.534-8.126.05.022 3.534zm-2.625-.975c.036.05.194.276.468.477.27.198.545.3.763.356.375.098.833.127 1.333.141l.1-3.532a8.04 8.04 0 01-.486-.026c-.106-.01-.108-.016-.057-.003.06.016.235.07.432.214.202.149.314.315.304.3l-2.857 2.073zm.82-6.152c-1.616.854-1.706 2.645-1.648 3.497.035.522.14 1.021.267 1.44.114.378.294.844.56 1.212l2.86-2.067c.05.07.055.095.03.038a1.982 1.982 0 01-.077-.213 3.025 3.025 0 01-.122-.649 1.154 1.154 0 01.02-.38c.002-.005-.01.033-.053.088a.606.606 0 01-.19.16l-1.646-3.126zm9.354-.495a71.055 71.055 0 00-4.452-.12 33.92 33.92 0 00-2.64.103c-.397.034-.788.082-1.14.149-.315.06-.74.161-1.122.363l1.647 3.125c-.096.05-.09.026.136-.017.191-.036.453-.07.785-.1.66-.057 1.486-.083 2.355-.088a67.46 67.46 0 014.195.111l.236-3.526zm3.261 1.138c-.81-.883-1.899-1.046-3.261-1.138l-.236 3.526c.672.045.959.101 1.074.135.04.012.014.009-.043-.026a.633.633 0 01-.13-.106l2.596-2.39zm.884 4.099c.21-.694.203-1.446.076-2.099-.126-.647-.41-1.4-.96-2l-2.596 2.392c-.018-.02-.003-.01.024.05a1.277 1.277 0 01.088.599l-.007.033 3.375 1.025zm-3.53 2.333c.427-.012 1.208-.019 1.904-.34.893-.415 1.376-1.17 1.626-1.992l-3.375-1.027c-.033.108-.042.087.012.015a.7.7 0 01.258-.206c.072-.032.091-.023-.012-.01a2.86 2.86 0 01-.2.016 9.692 9.692 0 01-.311.012l.098 3.532zM66.08 48.39a120.95 120.95 0 01-7.466 1.276l.48 3.5a123.91 123.91 0 007.683-1.312l-.697-3.464zm2.446 4.283v-2.277h-3.527v2.277h3.527zm-6.487 2.778c1.6-.223 3.202-.48 4.8-.763l-.613-3.48c-1.563.276-3.123.527-4.672.743l.485 3.5zm1.28 1.806v-3.28h-3.526v3.28h3.526zm2.61-1.964c-1.421.179-2.833.344-4.241.483l.345 3.517c1.45-.143 2.896-.313 4.334-.493l-.438-3.507zm2.296 4.302v-2.271h-3.527v2.271h3.527zm-6.285 2.406a218.93 218.93 0 004.428-.368l-.32-3.52c-1.46.134-2.911.26-4.358.363l.25 3.525zm1.379 2.35v-3.834h-3.526v3.833h3.526zm3.294-1.655c-1.612.062-3.221.118-4.824.167l.106 3.532c1.614-.049 3.233-.105 4.852-.168l-.134-3.53zm2.12 4.336v-2.291h-3.527v2.291h3.526zm-9.835 2.074l7.8-.028-.012-3.534-7.8.028.012 3.534zM64.77 50.98c.86-.18 1.499-.728 1.896-1.297a3.65 3.65 0 00.653-2.075h-3.527v.007l-.004.017a.115.115 0 01-.013.027c-.002.003.01-.015.047-.043a.605.605 0 01.23-.096l.718 3.46zm-3.267-2.861c0 .769.263 1.566.86 2.157a2.627 2.627 0 002.407.704l-.718-3.46a.89.89 0 01.787.24c.184.181.19.347.19.359h-3.526zm2.498-3.363c-.833.2-1.454.74-1.845 1.303a3.632 3.632 0 00-.653 2.06h3.526c0 .01 0 .006.004-.007a.137.137 0 01.014-.032c.006-.007 0 .005-.03.026a.549.549 0 01-.196.087l-.82-3.437zm3.318 2.852c0-.763-.254-1.57-.858-2.17a2.596 2.596 0 00-2.46-.682l.82 3.437a.928.928 0 01-.842-.244.706.706 0 01-.164-.245.394.394 0 01-.02-.07c-.003-.017-.003-.025-.003-.026h3.527zm-6.138 4.037c.871-.141 1.532-.667 1.945-1.228.42-.57.681-1.297.681-2.068h-3.526c0-.024.004-.026.008-.031a.288.288 0 01.073-.065.636.636 0 01.256-.096l.563 3.488zm-3.19-2.899c0 1.505 1.2 3.22 3.19 2.9l-.562-3.49a.85.85 0 01.724.236c.156.157.175.308.175.354h-3.526zm2.583-3.26c-1.591.299-2.582 1.818-2.582 3.26h3.526a.12.12 0 01-.02.075c-.005.005-.078.1-.273.137l-.65-3.473zm3.233 2.863c0-.776-.272-1.569-.867-2.152a2.652 2.652 0 00-2.366-.712l.652 3.473a.87.87 0 01-.75-.233c-.181-.177-.195-.346-.195-.376h3.526zm11.276 20.68l2.403-.017-.023-3.534c-.804.006-1.607.01-2.404.017l.024 3.533zm-3.44-8.113c1.02-.142 2.05-.285 3.088-.441l-.522-3.495c-1.017.153-2.028.294-3.05.436l.484 3.5zm-2.912 8.152l2.398-.014-.014-3.533c-.806.003-1.61.008-2.408.013l.024 3.534zm1.86-21.75c-.8.215-1.6.428-2.396.64l.902 3.416c.799-.212 1.603-.427 2.408-.643l-.913-3.413zm3.623 6.35c-1.037.214-2.07.409-3.117.607l.655 3.473c1.044-.198 2.103-.399 3.172-.62l-.71-3.46zm2.539-8.387c-.779.293-1.561.568-2.353.843l1.155 3.34c.798-.278 1.615-.565 2.437-.874l-1.24-3.31zm5.208 8.6c.876-.239 2.203-.396 3.63-.433 1.42-.038 2.795.048 3.75.23L90 50.204c-1.283-.243-2.927-.331-4.498-.29-1.565.04-3.204.213-4.462.554l.923 3.411zm.319-1.474c.085.436-.022.842-.205 1.139a1.32 1.32 0 01-.386.409c-.089.058-.058.015.272-.075l-.923-3.41c-.432.117-.893.275-1.275.524-.339.221-1.172.917-.945 2.09l3.462-.678zm.706-1.267c-.689.063-1.216.108-1.581.104-.197-.003-.204-.02-.115.006.048.013.223.067.423.223.228.178.482.491.568.94l-3.464.665c.219 1.141 1.22 1.487 1.496 1.567.378.11.77.129 1.05.132.585.008 1.319-.06 1.94-.117l-.317-3.52zm2.224-.13c-.709-.009-1.544.069-2.224.13l.316 3.52c.737-.067 1.374-.122 1.862-.116l.046-3.533zm2.894.196c-.864-.082-1.92-.183-2.895-.195l-.044 3.533c.805.01 1.713.095 2.608.18l.331-3.518zm1.557.123c-.39-.014-.908-.062-1.557-.123l-.33 3.518c.61.058 1.246.119 1.762.137l.125-3.532zm-.32 2.348c.339.065.503.138.534.155.018.01-.06-.028-.164-.139-.095-.1-.343-.4-.378-.895-.04-.569.226-1 .473-1.233.207-.195.392-.25.404-.255.033-.01-.113.035-.548.02l-.126 3.53c.608.023 1.217-.015 1.74-.181a2.45 2.45 0 00.945-.538 1.99 1.99 0 00.63-1.59 2.093 2.093 0 00-.583-1.292 2.848 2.848 0 00-.72-.538c-.45-.243-.988-.41-1.55-.516l-.656 3.472zM14.36 52.381c.01-.035.01-.029-.02.048-.025.063-.06.146-.103.247-.087.203-.193.44-.298.674l3.216 1.45c.102-.228.22-.493.321-.726.084-.195.207-.487.273-.717l-3.389-.976zm.52-1.493c-.195.527-.402 1.08-.52 1.493l3.39.976c.072-.252.219-.653.436-1.238l-3.306-1.23zm.147-.397l-.147.397 3.306 1.23.15-.404-3.31-1.223zm1.873-3.697c-.387.498-.764 1.193-1.064 1.809a21.54 21.54 0 00-.81 1.888l3.31 1.223c.16-.439.405-1.018.67-1.562.28-.574.524-.992.674-1.184l-2.78-2.174zm6.823 8.941a1.92 1.92 0 00.098-.764 2.494 2.494 0 00-.05-.352 4.63 4.63 0 00-.142-.498c-.104-.308-.25-.678-.416-1.065a49.126 49.126 0 00-1.263-2.693c-.467-.929-.968-1.86-1.39-2.544a7.574 7.574 0 00-.66-.939 2.485 2.485 0 00-.621-.531 1.88 1.88 0 00-.976-.257 1.817 1.817 0 00-1.403.701l2.78 2.175a1.71 1.71 0 01-1.315.657 1.648 1.648 0 01-.852-.217c-.22-.128-.321-.263-.28-.216.036.042.145.19.327.485.345.559.794 1.387 1.242 2.278.446.884.87 1.79 1.168 2.489.15.353.257.627.318.807.032.095.038.125.035.11a1.035 1.035 0 01-.02-.15c-.003-.048-.023-.311.089-.635l3.331 1.16zm-.292.535c.025-.034.054-.076.085-.122l-2.917-1.985-.043.061 2.875 2.046zm-5.002.494c.718.131 1.517.275 2.186.342.332.033.703.056 1.053.032.243-.017.924-.071 1.481-.556l-2.31-2.67c.224-.195.436-.261.503-.28.079-.022.117-.022.087-.02a3.187 3.187 0 01-.462-.023c-.504-.05-1.159-.165-1.907-.301l-.63 3.476zm-1.08-.666a.384.384 0 01-.022-.022l-.007-.007.006.007a.559.559 0 01.015.02l2.807-2.14a3.489 3.489 0 00-.416-.463l-2.382 2.605zm1.515.122c.057-.046-.124.128-.48.178-.204.028-.424.01-.634-.065a1.174 1.174 0 01-.4-.235l2.383-2.604c-.45-.413-1.089-.7-1.834-.597-.615.086-1.052.413-1.255.578l2.22 2.745zm-1.944-.846c-.135.415-.405.68-.62.822-.195.129-.36.17-.409.18-.091.022-.09.005.087.013.326.014.824.086 1.474.2l.604-3.483c-.642-.111-1.344-.222-1.922-.248a3.921 3.921 0 00-1.024.072c-.273.062-1.21.324-1.544 1.35l3.354 1.094zm-2.981-2.024c-.1.224-.207.461-.277.63a3.017 3.017 0 00-.128.347c-.01.035-.043.149-.06.295a1.771 1.771 0 00.695 1.636c.703.528 1.44.335 1.712.226.273-.109.45-.26.506-.31.136-.118.225-.233.247-.26l-2.781-2.173a1.758 1.758 0 013.122 1.308 1.838 1.838 0 01-.053.26c-.025.086-.046.127-.01.039.05-.118.134-.306.243-.548l-3.216-1.45zm1.57 7.366c.258-1.47.77-3.37 1.41-5.342l-3.353-1.094c-.665 2.05-1.232 4.125-1.53 5.825l3.473.61zm-.607-.72c-.133-.03-.099-.038.002.02.135.08.333.245.463.52.113.24.106.425.106.428l.006-.055a4.52 4.52 0 01.03-.194l-3.473-.61a5.283 5.283 0 00-.088.772c-.007.292.02.72.23 1.166.47 1 1.44 1.287 1.965 1.404l.759-3.452zm3.51.237c-1.42-.043-2.866-.095-3.51-.237l-.76 3.45c1.054.233 2.93.282 4.163.32l.107-3.533zm2.967.002c-.662.065-1.475.043-2.798.003l-.107 3.532c1.24.038 2.312.074 3.25-.019l-.345-3.516zm.197-.558c.046.204.08.375.106.521.025.148.037.251.04.324.01.163-.025.065.069-.117a.798.798 0 01.184-.235c.062-.054.103-.069.088-.063-.016.008-.074.03-.194.056a4.4 4.4 0 01-.49.072l.345 3.516c1.057-.104 2.506-.388 3.195-1.715.318-.612.352-1.238.325-1.715-.027-.474-.127-.97-.227-1.417l-3.44.773zm-1.163-3.885c.43 1.12.806 2.29 1.163 3.885l3.441-.774a29.84 29.84 0 00-1.315-4.384l-3.29 1.273zm2.736.79c.235-.204.45-.486.574-.848l-3.332-1.157c.101-.292.273-.513.447-.664l2.311 2.669zm.246-.26l.036-.052-2.875-2.046-.03.042 2.87 2.055zm-.051.072l.051-.073-2.869-2.055a7.56 7.56 0 00-.082.117l2.9 2.011zm-.138.22c.06-.102.097-.162.138-.221l-2.9-2.01c-.11.16-.198.306-.255.4l3.017 1.83zm-.694.905c.37-.354.583-.723.694-.906l-3.017-1.83c-.126.209-.125.191-.111.179l2.433 2.557zm-4.922-1.048c.121.19.303.479.512.747.205.262.523.62.974.886.498.295 1.137.46 1.846.311.652-.138 1.179-.503 1.59-.896l-2.435-2.557c-.136.13-.096.04.12-.006a.98.98 0 01.669.104c.057.033.082.059.076.054a.804.804 0 01-.064-.075 6.134 6.134 0 01-.313-.466l-2.975 1.898zm-.248-.375c.056.075.124.18.248.375l2.975-1.898c-.103-.161-.254-.401-.417-.617l-2.806 2.14zm.918.638l.17.03.63-3.476-.168-.031-.632 3.477zm-.808-.146c.26.046.53.094.808.146l.632-3.477c-.276-.05-.56-.102-.836-.15l-.604 3.481zm1.206-.172a4.06 4.06 0 01.206-.196l-2.22-2.745c-.187.151-.36.324-.459.421l2.473 2.52zm-.913.755c.42-.257.76-.604.913-.755l-2.473-2.52c-.098.097-.16.157-.217.208-.055.049-.074.059-.065.053l1.842 3.014zm-4.036-1.473c.236.418.637.995 1.237 1.396a2.67 2.67 0 001.27.453 2.521 2.521 0 001.53-.376l-1.843-3.013a1 1 0 01.999-.005c.043.029.04.036 0-.01a1.31 1.31 0 01-.125-.187l-3.068 1.742zm34.18 2.593c0 .005-.002-.03.01-.106.013-.074.035-.168.072-.279a2.75 2.75 0 01.343-.683c.335-.48.6-.54.673-.54l-.023-3.533c-1.682.01-2.873 1.093-3.54 2.05-.66.944-1.117 2.194-1.056 3.29l3.52-.199zm-.655-1.395a13.5 13.5 0 01-.497.062c-.132.012-.128.003-.061.01.056.006.395.046.728.346.384.345.473.765.485.978l-3.52.197c.023.43.178 1.005.68 1.456.453.407.964.506 1.244.536.491.054 1.085-.039 1.408-.082l-.467-3.503zm1.48-.157c-.596.039-1.104.107-1.48.157L47.7 60.4c.377-.05.778-.104 1.242-.134l-.228-3.526zm1.494-.069a55.19 55.19 0 00-1.493.069l.228 3.526c.423-.027.906-.045 1.396-.063l-.13-3.532zm1.399-.07c-.31.029-.796.048-1.399.07l.131 3.532c.558-.021 1.165-.043 1.6-.085l-.332-3.518zm-.837 1.48a1.416 1.416 0 01.046-.48c.097-.352.315-.647.586-.838.113-.08.212-.125.272-.15.06-.023.1-.032.108-.034.008-.002-.036.008-.174.021l.33 3.518c.204-.019.429-.047.647-.098.203-.048.529-.143.848-.368.376-.266.655-.65.782-1.112a2.27 2.27 0 00.057-.872l-3.502.413zm-.268-.66c.088.166.16.333.21.473.056.157.062.218.058.187l3.502-.412c-.071-.609-.349-1.324-.649-1.894l-3.12 1.645zm-1.515-.736c.49-.004.8.08.999.183.176.09.352.24.516.553l3.121-1.647c-.477-.907-1.158-1.602-2.022-2.048-.843-.435-1.755-.581-2.636-.575l.022 3.534zm-1.006-.797c.454.093.887.076 1.103.072l-.078-3.533a5.635 5.635 0 01-.268.002c-.053-.002-.062-.006-.049-.003l-.708 3.462zm-.079-4.638c-.294.248-.733.753-1.032 1.23-.13.208-.391.651-.46 1.187-.039.294-.044.812.277 1.33.347.56.878.805 1.294.89l.708-3.461c.268.055.703.236.994.707.264.427.244.829.224.989-.022.167-.068.265-.07.27-.007.015-.003.004.021-.035.05-.08.13-.187.217-.29.102-.12.142-.15.096-.111L47.9 51.248zm8.127 2.448c-.07-.855-.57-1.559-.988-2.005a5.49 5.49 0 00-1.819-1.266c-1.504-.647-3.52-.692-5.32.823l2.269 2.706c.347-.293.645-.39.88-.415.249-.027.515.019.78.133.272.117.498.287.64.44.07.074.1.122.105.131.01.02-.045-.069-.06-.254l3.514-.293zm-1.81 2.145c.054-.01.166-.033.273-.06.1-.025.31-.083.536-.207a1.94 1.94 0 00.795-.81c.211-.412.228-.806.206-1.07l-3.513.296a1.572 1.572 0 01.173-.847c.188-.364.463-.57.648-.67a1.352 1.352 0 01.282-.116l-.088.018.688 3.466zm-.129.026l.129-.026-.688-3.466-.187.038.746 3.454zm-1.227.398c.125-.058.238-.111.41-.173.175-.062.434-.141.818-.225l-.748-3.454c-1.067.233-1.623.486-1.976.652l1.496 3.2zm-2.55-.077c.266.129.752.365 1.32.38.634.016 1.14-.26 1.23-.303l-1.496-3.2-.089.041c-.014.007 0 0 .03-.01a1.174 1.174 0 01.415-.061.983.983 0 01.287.045c.001 0-.04-.015-.167-.076l-1.53 3.184zm-1.23-.23c.265-.007.414-.007.582.018.154.023.36.074.649.213l1.529-3.185c-1.269-.611-2.222-.593-2.837-.58l.078 3.534zm6.059 1.314a9.121 9.121 0 01-.123-.318l-3.3 1.243c.051.14.121.325.187.479l3.236-1.404zm-1.03-.757l-.112.008c.016 0 .157 0 .346.063.218.073.422.202.583.373.14.15.2.282.213.312l-3.235 1.405c.19.439.573 1.014 1.329 1.265.51.17 1.052.105 1.105.101l-.229-3.526zm1.754.113a6.077 6.077 0 00-1.754-.112l.229 3.526a2.536 2.536 0 01.803.045l.722-3.459zm1.274.412c-.26-.105-.722-.296-1.274-.412l-.723 3.46c.206.042.4.117.674.228l1.323-3.276zm-1.576 1.251c.024-.125.124-.517.517-.842a1.535 1.535 0 011.056-.357c.173.01.273.051.223.034a5.214 5.214 0 01-.22-.086l-1.323 3.276c.103.042.257.105.407.156a2.7 2.7 0 00.708.148c.336.02.892-.03 1.395-.447a2.07 2.07 0 00.7-1.21l-3.463-.672zm-2.037-1.598c.136-.074.586-.148 1.26.412a2.6 2.6 0 01.659.806c.139.28.114.404.118.38l3.462.67c.187-.97-.061-1.898-.425-2.628a6.127 6.127 0 00-1.564-1.95c-1.2-.995-3.239-1.864-5.199-.792l1.69 3.102zm.622-1.516a8.385 8.385 0 01-.116-.18l.001.003.006.012a1.01 1.01 0 01.09.307c.043.28.004.64-.202.97-.174.28-.378.391-.401.404l-1.689-3.102c-.27.148-.635.4-.9.826a2.1 2.1 0 00-.293 1.438c.059.386.212.688.302.852.093.17.204.335.266.427l2.936-1.957zm.407.677c-.148-.288-.313-.535-.407-.677l-2.936 1.957c.106.16.162.248.205.332l3.138-1.612zm.463 1.1c-.1-.266-.264-.71-.463-1.1l-3.138 1.612c.09.175.184.42.3.731l3.301-1.243zm25.1-.045c2.987-1.022 5.706-1.146 9.024-.54l.632-3.476c-3.82-.698-7.158-.573-10.796.672l1.14 3.344zm.184-.707c.006-.038.002-.005-.009.036a1.442 1.442 0 01-.497.765c-.094.072-.145.087-.07.054a5.11 5.11 0 01.392-.148l-1.14-3.344c-.435.149-.934.334-1.318.627-.248.19-.485.446-.647.792-.138.292-.178.573-.182.593l3.47.625zm-.2-.69a3.482 3.482 0 01-.246-.12c-.018-.01.083.044.196.182.132.161.208.348.235.512.022.134.001.191.015.115l-3.47-.623c-.117.649-.11 1.499.492 2.235.45.55 1.118.823 1.284.9l1.494-3.2zm.484.238a10 10 0 00-.484-.237l-1.494 3.2c.129.061.231.11.336.165l1.642-3.128zm.814 3.954c.13-.318.41-.948.47-1.552.036-.36.017-.848-.231-1.346a2.41 2.41 0 00-1.053-1.056l-1.642 3.128a1.13 1.13 0 01-.461-.495 1.108 1.108 0 01-.122-.586c.006-.06.015-.053-.029.073-.042.12-.101.265-.192.486l3.26 1.348zm-.307 3.33c-.497-1.304-.131-2.266.307-3.33l-3.26-1.348c-.462 1.12-1.367 3.245-.341 5.938l3.294-1.26zm8.394.855c-2.116 3.097-7.124 2.479-8.394-.855l-3.294 1.26c2.329 6.115 10.945 6.936 14.597 1.592l-2.909-1.997zm.467-4.463c.216.624.41 1.215.414 1.912.004.653-.162 1.5-.88 2.55l2.908 1.998c1.119-1.636 1.507-3.186 1.498-4.57-.008-1.34-.393-2.425-.608-3.046l-3.332 1.156zm-.147-2.33c-.29.663-.153 1.298-.101 1.524.066.287.175.597.248.806l3.332-1.156c-.043-.125-.076-.219-.102-.3a2.214 2.214 0 01-.042-.143c-.004-.022.01.03.012.127a1.35 1.35 0 01-.118.562l-3.229-1.42zm.817-1.056c-.087.085-.223.217-.344.35a2.665 2.665 0 00-.473.706l3.23 1.42a1.294 1.294 0 01-.149.252c-.002.004-.002.003.003-.003a1.58 1.58 0 01.066-.068l.125-.123-2.458-2.534zm-1.482.33c1.022.186 1.593.371 1.884.507.337.157.026.116-.126-.347a1.148 1.148 0 01-.026-.633.853.853 0 01.082-.205l-.023.03c-.016.02-.038.044-.068.077-.064.069-.138.14-.241.241l2.458 2.535c.165-.162.529-.506.802-.914.272-.406.694-1.234.365-2.235-.307-.936-1.095-1.454-1.735-1.753-.688-.32-1.597-.572-2.74-.78l-.632 3.477zm-11.149-7.782a1.484 1.484 0 01-2.004-1.392h3.526a2.044 2.044 0 00-2.761-1.916l1.239 3.309zm-1.438-.532c0 .635-.402 1.199-.999 1.406l-1.155-3.339a2.046 2.046 0 00-1.373 1.933h3.527zm-1.63 9.072a2.044 2.044 0 001.63-2.004h-3.527c0-.704.493-1.315 1.187-1.457l.71 3.46zm-5.288-1.138a1.785 1.785 0 002.116 1.757l-.655-3.473a1.743 1.743 0 012.066 1.716h-3.527zm.566-6.056c0 .676-.454 1.266-1.105 1.439l-.902-3.416a2.045 2.045 0 00-1.52 1.977h3.527zm-1.495 15.6a1.486 1.486 0 011.495 1.487h-3.526c0 1.136.922 2.054 2.055 2.046l-.024-3.534zm.93 1.473c0-.82.661-1.484 1.478-1.487l.014 3.533a2.044 2.044 0 002.034-2.046h-3.527zm6.917-8.005a2.044 2.044 0 00-2.345-2.023l.523 3.495a1.485 1.485 0 01-1.705-1.472h3.527zm-.566 7.963c0-.818.659-1.482 1.475-1.488l.023 3.534a2.044 2.044 0 002.028-2.046H75.99zm-17.105-1.394a1.486 1.486 0 011.49 1.488h-3.526c0 1.133.919 2.05 2.049 2.046l-.013-3.534zm7.862.655a1.486 1.486 0 01-1.541-1.486h3.526a2.044 2.044 0 00-2.12-2.045l.135 3.531zm-6.954-1.877c0 1.153.95 2.08 2.102 2.045l-.106-3.532a1.487 1.487 0 011.53 1.487h-3.526zm1.897-5.874a2.045 2.045 0 00-1.898 2.041h3.527c0 .783-.604 1.429-1.38 1.484l-.25-3.525zm3.008 1.12c0-.77.585-1.413 1.35-1.483l.32 3.52a2.045 2.045 0 001.857-2.038h-3.527zm-39.89 7.147a1.486 1.486 0 011.461-1.194l-.012 3.534a2.042 2.042 0 002.008-1.642l-3.456-.698zm35.567-15.05c0 .745-.55 1.372-1.282 1.473l-.48-3.5a2.045 2.045 0 00-1.764 2.027h3.526zM23.78 65.538c.945.003 1.647.88 1.444 1.807l-3.444-.76a2.045 2.045 0 001.986 2.487l.014-3.534zm42.997-13.684a1.485 1.485 0 01-1.778-1.458h3.527a2.044 2.044 0 00-2.446-2.006l.697 3.464zm-23.768 5.16c0-.865.702-1.564 1.565-1.558l-.024 3.533a1.973 1.973 0 001.985-1.975h-3.526zm1.848 6.391a1.762 1.762 0 01-1.754-1.763h3.527c0-.967-.78-1.767-1.761-1.77l-.012 3.533zM25.94 60.43a2.045 2.045 0 001.859 2.44l.247-3.526A1.488 1.488 0 0129.4 61.12l-3.458-.69zM10.587 50.308a1.488 1.488 0 011.034 1.418H8.094c0 .888.573 1.678 1.421 1.949l1.071-3.367zM43.77 61.929c-.01.799-.66 1.47-1.492 1.465l.023-3.534a2.047 2.047 0 00-2.057 2.023l3.526.046zm21.436 5.103c0-.82.662-1.485 1.48-1.488l.012 3.534a2.044 2.044 0 002.034-2.046h-3.526zM30.844 53.683c-.36-1.934-3.118-1.968-3.521-.038l3.451.724c-.389 1.862-3.05 1.83-3.397-.037l3.466-.649zM66.365 58.8a1.486 1.486 0 01-1.669-1.476h3.527a2.043 2.043 0 00-2.296-2.03l.438 3.506zm-36.33 4.218a2.044 2.044 0 002.133-2.44l-3.459.687c-.19-.96.58-1.837 1.552-1.774l-.227 3.526zm-1.119-11.784a1.484 1.484 0 01-1.718 1.113l.655-3.472a2.042 2.042 0 00-2.365 1.533l3.428.826zm32.636.717a2.045 2.045 0 00-1.761 2.027h3.526c0 .745-.549 1.371-1.28 1.473l-.485-3.5zm-1.761 5.306a2.043 2.043 0 002.24 2.036l-.345-3.517a1.487 1.487 0 011.63 1.481H59.79zM30.534 52.92a1.486 1.486 0 01-1.213-1.143l3.44-.775a2.044 2.044 0 00-1.669-1.571l-.558 3.489zm34.463-.247c0-.72.516-1.34 1.227-1.466l.614 3.48a2.045 2.045 0 001.686-2.014h-3.527zm6.163 4.742a1.767 1.767 0 00-1.524 1.752h3.527c0 .883-.65 1.629-1.52 1.75l-.483-3.502zm-29.045-1.98a1.57 1.57 0 011.552 1.572h-3.526a1.96 1.96 0 001.938 1.963l.036-3.534zm-31.513 1.488a2.045 2.045 0 00-2.407 2.003l3.527.023a1.483 1.483 0 01-1.748 1.452l.628-3.478zM32.938 67.41a1.487 1.487 0 011.45-1.835l-.013 3.534a2.045 2.045 0 001.992-2.523l-3.429.824zm-.245-3.672a2.043 2.043 0 00-1.921-1.625l-.133 3.531a1.485 1.485 0 01-1.397-1.182l3.451-.724zm-5.16-1.753a2.042 2.042 0 00-2.085 1.623l3.451.726a1.486 1.486 0 01-1.516 1.181l.15-3.53zm47.527 3.51a1.486 1.486 0 011.495 1.487h-3.527c0 1.136.923 2.054 2.056 2.046l-.024-3.534zm-62.771-4.687a1.489 1.489 0 01-1.235-1.477l3.526.02a2.043 2.043 0 00-1.696-2.026l-.595 3.483zm19.595 4.759a1.486 1.486 0 011.446 1.171l-3.446.753a2.042 2.042 0 001.988 1.61l.012-3.534zm39.622-14.836a1.485 1.485 0 01-1.869-1.437h3.527a2.043 2.043 0 00-2.571-1.976l.913 3.413zM10.96 52.507c0-1.026.984-1.77 1.972-1.477l-1 3.389a1.99 1.99 0 002.554-1.912H10.96zm45.888-.814V67.06h3.526V51.693h-3.526zm22.667 15.273v-19.77H75.99v19.77h3.526zm-6.487-7.963v7.98h3.527v-7.98h-3.527zm.136 8.005v-7.84h-3.527v7.84h3.527zm-6.487-17.073v17.087h3.526V49.935h-3.526zm6.487 6.056v-6.697h-3.527v6.697h3.527zm-.136-7.934v7.068h3.527v-7.068h-3.527zM18.58 60.238l-.17-.005-.106 3.532.17.005.106-3.532z" fill="#E41C53"/><path fill-rule="evenodd" clip-rule="evenodd" d="M16.228 52.978c-.118.41-.093.613.065.41.496-.637 1.257-3.095 1.563-3.977.165-.479.807-2.01.433-1.53-.537.69-1.052 2.35-1.417 3.344-.267.726-.527 1.343-.644 1.753zM18.42 62c-1.336-.04-3.036-.09-3.899-.28-.863-.19-.887-.524-.75-1.31.278-1.587.818-3.573 1.471-5.584.347.614.941 1.23 1.581.837.671-.412 1.14-1.398 1.717-.868.699.642 1.275 2.86 2.753 1.444.268-.256.373-.523.6-.852.05-.073.106-.148.163-.233a27.983 27.983 0 011.24 4.135c.391 1.75.346 2.496-1.746 2.703-.822.08-1.794.048-3.13.008zm27.707-3.61c-.066-1.19 1.092-3.463 2.848-3.475 1.37-.008 2.446.46 3.087 1.68.25.478.422.973.458 1.278.036.305-.064.42-.748.484-.684.065-1.952.08-2.944.144-1.743.113-2.666.51-2.7-.111zm2.207-4.235c.694.142 1.417-.198 2.743.44 1.018.492.522.006 2.64-.455.38-.082.572-.082.554-.298-.09-1.093-2.819-3.277-5.235-1.241-.267.224-1.293 1.432-.702 1.554zm5.189 3.819c-.129-.299-.315-.88-.537-1.315-.37-.72-.972-1.153-.304-1.517 2.096-1.146 4.977 1.59 4.612 3.484-.108.56-.757-.052-1.79-.269-1.351-.283-1.719.221-1.981-.383zm26.025-2.737c3.312-1.134 6.34-1.258 9.91-.606 5.415.988 2.264 2.49 1.963 3.175-.323.738 2.07 3.353-.48 7.081-2.884 4.22-9.696 3.501-11.495-1.224-1.344-3.528 1.667-5.638.319-6.35-.827-.435-1.37-.467-1.199-1.424.04-.223.063-.337.982-.652z" fill="#fff"/><path fill-rule="evenodd" clip-rule="evenodd" d="M84.93 43.521c-.527 1.035-1.31 3.054-1.778 4.354-.468 1.298-.622 1.877.206 2.212.647.261 5.248.916 5.601.019.32-.813-1.917-6.997-2.945-7.523-.288-.148-.558-.097-1.084.938zM18.357 63.01c-.707-.008-.675 0-.668.932.005.706.036 2.004.085 2.718.054.772.065 1.084 1.239.997.52-.038.456-.651.473-1.734.052-3.214.172-2.898-1.129-2.913zm-5.539-3.904c-.955-.163-1.91-.33-2.857-.503 0 4.23-.508 5.803-1.799 5.712-.878-.062-1.361-.92-1.61-2.516-.25-1.614-.283-3.96-.283-6.973 0-3.133.067-5.425.336-6.85.265-1.408.735-1.923 1.557-1.558 1.183.526 1.696 2.076 1.696 5.222v.29c.955.307 1.91.6 2.866.881v-.304c0-2.382-.319-4.322-1.024-5.855-.723-1.57-1.874-2.763-3.538-3.627-2.365-1.228-3.589-.2-4.217 2.052-.646 2.316-.697 5.732-.697 8.949 0 3.142.01 6.56.611 9.241.587 2.617 1.79 4.404 4.14 4.404 2.014 0 3.211-.938 3.916-2.472.69-1.502.903-3.623.903-6.092zm21.918 8.238a968.856 968.856 0 01-1.876-7.947A1379.31 1379.31 0 0131 51.205c-1.248-.2-2.496-.404-3.735-.644a795.475 795.475 0 00-1.928 8.178 989.59 989.59 0 00-1.91 8.564c1.015.003 2.039.01 3.063.014.241-1.198.482-2.393.732-3.577 1.23.053 2.461.1 3.7.147.242 1.154.483 2.305.732 3.446l3.081.01zm-4.226-6.065c-.972-.064-1.936-.124-2.9-.194.241-1.221.49-2.436.732-3.643.24-1.198.49-2.396.74-3.59.232 1.251.473 2.499.706 3.737.231 1.234.481 2.465.722 3.69zm14.356.36a896.09 896.09 0 01-2.857-.013c0 2.819-.508 3.886-1.8 3.88-.877-.004-1.36-.527-1.609-1.515-.25-.994-.284-2.452-.284-4.33 0-1.955.061-3.403.328-4.345.267-.944.748-1.386 1.566-1.357 1.187.041 1.695.957 1.695 3.049v.193c.956.01 1.911.017 2.866.024v-.21c0-1.675-.319-2.962-1.032-3.834-.716-.873-1.86-1.329-3.53-1.414-2.35-.121-3.59.856-4.225 2.355-.639 1.51-.697 3.55-.697 5.459 0 1.861.015 3.888.62 5.454.6 1.556 1.79 2.636 4.14 2.636 2.013 0 3.218-.638 3.915-1.711.697-1.072.904-2.583.904-4.32zm5.127 3.561c.244.589.73 1.53 1.064 2.035.333.506.512.578.863.183.274-.309 2.052-2.766 1.379-3.334-.557-.47-2.621-.362-3.274.097-.275.194-.275.43-.032 1.02zm-2.569-1.886l8.127-.05c1.014-.03 1.59-.09 1.89-1.08.218-.721.037-1.814-.494-2.391-.286-.313-.687-.477-2.08-.57-1.454-.098-7.272-.31-8.413.294-1.223.646-.606 3.01-.215 3.553.093.129.172.215 1.185.244zM58.612 51.45v15.89l8.357-.03v-2.86c-1.808.07-3.615.134-5.414.187v-4.38a223.96 223.96 0 004.906-.407v-2.843c-1.635.207-3.27.4-4.906.557v-3.83c1.73-.237 3.468-.517 5.207-.827v-2.853a122.64 122.64 0 01-8.15 1.395zm5.8-2.199c.633-.132 1.145-.866 1.145-1.642 0-.775-.512-1.286-1.145-1.134-.632.152-1.144.888-1.144 1.645s.512 1.263 1.144 1.131zm-3.511.65c.628-.101 1.145-.804 1.145-1.551 0-.747-.517-1.246-1.145-1.128-.628.119-1.145.793-1.145 1.525 0 .732.517 1.256 1.145 1.155zm16.852 17.343V46.791a95.3 95.3 0 01-2.961 1.067v7.494c-1.136.237-2.263.45-3.39.664V48.93c-.991.267-1.98.53-2.962.79v17.583c.981-.006 1.97-.013 2.961-.017v-8.12c1.128-.157 2.255-.314 3.39-.487v8.584l2.962-.02zm3.747-15.07c2.134-.58 5.932-.657 8.17-.233 1.801.342 2.016 1.229-.07 1.154-1.087-.039-2.886-.298-4.412-.317-1.705-.023-4.525.557-4.638-.033-.033-.169.187-.363.95-.57z" fill="#FE0"/></g></g></g><defs><clipPath id="clip0_1599_2158"><path fill="#fff" d="M0 0h96v80H0z"/></clipPath></defs></svg>